<?xml version="1.0" standalone="no"?>
<!DOCTYPE svg PUBLIC "-//W3C//DTD SVG 20010904//EN"
 "http://www.w3.org/TR/2001/REC-SVG-20010904/DTD/svg10.dtd">
<svg version="1.0" xmlns="http://www.w3.org/2000/svg"
 width="2800.000000pt" height="2800.000000pt" viewBox="0 0 2800.000000 2800.000000"
 preserveAspectRatio="xMidYMid meet">

<g transform="translate(0.000000,2800.000000) scale(0.100000,-0.100000)"
fill="#000000" stroke="none">
<path d="M13465 26215 c-122 -7 -281 -23 -355 -34 -494 -79 -463 -73 -600
-112 -36 -10 -123 -34 -195 -54 -71 -19 -157 -43 -190 -52 -90 -25 -616 -237
-693 -279 -37 -21 -155 -85 -262 -144 -173 -95 -317 -190 -580 -384 -65 -47
-144 -120 -334 -305 -136 -134 -160 -163 -274 -331 -31 -47 -60 -86 -64 -88
-5 -2 -8 -8 -8 -13 0 -8 -34 -58 -89 -130 -11 -15 -30 -53 -41 -85 -12 -33
-25 -66 -29 -74 -5 -9 -12 -30 -15 -48 -4 -17 -12 -34 -17 -37 -5 -4 -9 -13
-9 -21 0 -8 -10 -36 -21 -62 -45 -98 -59 -134 -60 -155 -1 -20 -2 -19 -12 6
-6 15 -15 27 -21 27 -5 0 -38 -18 -72 -41 -71 -46 -147 -124 -244 -249 -19
-25 -40 -49 -47 -53 -7 -4 -13 -14 -13 -22 0 -7 -4 -15 -8 -17 -8 -3 -223
-322 -231 -343 -2 -5 -14 -23 -27 -40 -12 -16 -41 -66 -64 -110 -24 -44 -49
-87 -56 -96 -8 -8 -14 -19 -14 -24 0 -4 -20 -40 -44 -81 -63 -103 -354 -692
-362 -731 -4 -18 -10 -33 -15 -33 -5 0 -9 -5 -9 -10 0 -11 -44 -111 -81 -183
-10 -21 -19 -43 -19 -50 0 -11 -18 -53 -57 -129 -7 -14 -13 -33 -13 -42 0 -9
-13 -43 -30 -76 -16 -33 -30 -68 -30 -79 0 -11 -4 -23 -10 -26 -5 -3 -10 -14
-10 -23 0 -9 -16 -55 -36 -102 -45 -108 -104 -280 -104 -302 0 -10 -4 -18 -9
-18 -5 0 -12 -17 -16 -37 -4 -21 -10 -42 -15 -48 -4 -5 -15 -37 -24 -70 -9
-33 -21 -69 -25 -80 -16 -37 -60 -160 -67 -185 -4 -14 -10 -27 -13 -30 -9 -7
-115 -421 -141 -550 -5 -25 -19 -88 -31 -140 -31 -138 -47 -260 -64 -480 -8
-107 -19 -247 -25 -310 -17 -177 -23 -728 -12 -1095 9 -295 12 -337 31 -395
38 -115 103 -163 245 -184 133 -19 251 4 263 52 3 14 3 115 -1 226 -22 696
-19 1042 16 1444 l11 133 51 30 c61 36 263 135 326 160 25 10 38 18 30 19 -18
0 -108 -30 -255 -84 -133 -50 -232 -82 -277 -90 -31 -6 -39 -3 -47 13 -14 25
-14 310 -1 444 17 177 51 219 267 330 l122 62 45 110 c25 61 81 196 125 301
73 177 158 401 201 534 66 203 223 638 283 785 90 218 110 263 219 479 112
224 254 458 387 641 216 296 241 321 386 391 493 238 1133 415 1910 529 61 8
153 22 205 30 238 36 657 79 1055 107 234 16 1169 16 1405 0 404 -28 911 -82
1210 -127 52 -8 138 -22 191 -30 174 -27 521 -95 689 -136 434 -106 676 -188
1043 -351 l158 -71 62 -76 c35 -42 77 -96 94 -121 17 -25 59 -84 94 -132 92
-125 208 -307 307 -482 43 -75 178 -340 211 -416 104 -231 199 -488 371 -995
67 -198 146 -421 175 -495 29 -74 58 -153 65 -174 7 -22 27 -71 45 -110 17
-39 40 -95 49 -124 l18 -52 137 -70 c222 -113 257 -148 280 -283 17 -99 26
-445 12 -479 -8 -23 -17 -28 -44 -28 -31 0 -209 57 -441 140 -63 22 -100 30
-124 27 -18 -3 -45 -1 -60 5 -64 25 -191 70 -232 83 -43 14 -181 31 -150 19 8
-3 38 -15 67 -26 31 -12 53 -27 56 -39 3 -12 0 -19 -9 -19 -8 0 -14 5 -14 11
0 6 -6 9 -12 7 -7 -3 -13 -12 -13 -20 0 -8 -22 -33 -50 -55 -27 -22 -63 -55
-79 -72 -17 -17 -38 -31 -48 -31 -10 0 -18 -6 -18 -13 0 -17 -90 -107 -106
-107 -7 0 -15 -8 -18 -17 -3 -10 -4 -6 -2 9 2 15 -1 25 -5 22 -5 -3 -9 -15 -9
-28 0 -13 -9 -31 -20 -41 -11 -10 -20 -22 -20 -27 0 -5 -7 -16 -15 -24 -8 -9
-15 -20 -15 -25 0 -12 157 -12 165 1 3 5 24 10 45 10 21 0 69 6 107 14 92 20
428 38 643 35 148 -2 181 0 210 14 18 10 35 16 36 14 10 -9 24 -170 35 -387
13 -265 9 -680 -12 -1150 -7 -162 -9 -298 -4 -315 l8 -30 9 45 c5 25 12 56 14
68 3 17 10 22 21 18 43 -17 155 -25 210 -16 91 16 176 56 210 98 60 75 72 160
78 552 5 340 16 635 25 640 5 3 9 24 11 47 3 33 -1 46 -19 61 -20 18 -22 28
-22 139 0 66 -4 144 -9 174 -5 30 -12 106 -15 169 -12 235 -34 410 -71 575
-14 61 -37 164 -51 230 -15 66 -33 149 -41 185 -8 36 -17 82 -20 103 -3 20 -9
37 -13 37 -5 0 -18 33 -30 73 -11 39 -27 86 -35 103 -7 18 -17 48 -20 68 -4
20 -11 36 -15 36 -5 0 -11 18 -15 40 -4 22 -11 40 -16 40 -5 0 -9 9 -9 19 0
11 -18 68 -39 128 -22 59 -45 128 -51 153 -6 25 -17 54 -25 65 -7 11 -16 36
-20 55 -4 19 -13 46 -20 60 -7 14 -24 54 -36 90 -13 36 -29 76 -36 90 -7 14
-13 31 -13 38 0 7 -9 32 -20 54 -11 23 -20 46 -20 51 0 12 -48 137 -66 169 -8
14 -14 36 -14 47 0 12 -4 21 -9 21 -5 0 -12 14 -16 30 -4 17 -11 30 -16 30 -5
0 -9 7 -9 15 0 8 -11 38 -24 67 -45 99 -86 201 -86 214 0 8 -4 14 -10 14 -5 0
-10 4 -10 9 0 9 -34 85 -50 111 -5 8 -20 40 -33 70 -59 134 -72 160 -79 160
-5 0 -8 5 -8 10 0 17 -72 173 -90 195 -14 17 -37 60 -95 175 -5 11 -13 20 -17
20 -5 0 -8 8 -8 18 0 10 -4 22 -9 28 -5 5 -23 36 -41 69 -17 33 -44 82 -61
108 -16 27 -27 53 -24 58 3 5 0 7 -7 4 -8 -3 -20 12 -33 40 -11 25 -23 45 -26
45 -4 0 -22 24 -40 53 -19 28 -39 58 -46 65 -7 7 -13 19 -13 26 0 8 -21 40
-47 72 -44 54 -76 89 -227 247 -48 51 -170 137 -193 137 -6 0 -9 -9 -6 -20 3
-11 0 -20 -6 -20 -6 0 -11 7 -11 15 0 27 -1 30 -14 50 -7 11 -22 52 -35 90
-12 39 -28 84 -36 100 -7 17 -30 73 -51 125 -31 79 -100 201 -124 220 -3 3
-58 77 -122 165 -95 132 -141 184 -259 296 -258 243 -247 234 -431 364 -31 22
-108 77 -170 121 -62 45 -185 120 -273 168 -88 48 -176 96 -195 107 -107 61
-233 117 -470 212 -213 85 -320 120 -544 182 -265 72 -354 90 -791 160 -124
20 -562 45 -750 43 -77 0 -239 -6 -360 -13z m5778 -6834 c8 -8 8 -11 0 -11
-13 0 -83 29 -83 34 0 8 73 -13 83 -23z m37 -21 c0 -5 -2 -10 -4 -10 -3 0 -8
5 -11 10 -3 6 -1 10 4 10 6 0 11 -4 11 -10z m163 -68 c88 -45 82 -51 -8 -7
-39 19 -78 34 -87 35 -9 0 -20 5 -23 10 -11 18 44 0 118 -38z m132 -72 c3 -6
-1 -7 -9 -4 -18 7 -21 14 -7 14 6 0 13 -4 16 -10z"/>
<path d="M11495 21139 c-362 -39 -744 -186 -1020 -394 -66 -50 -187 -169 -230
-226 l-20 -26 -340 -27 c-187 -15 -378 -29 -425 -32 -152 -10 -238 -24 -378
-65 -277 -81 -299 -119 -304 -520 -2 -176 0 -240 9 -251 7 -8 45 -20 85 -27
127 -22 157 -37 234 -116 108 -110 149 -205 264 -610 112 -392 202 -633 303
-810 234 -411 562 -601 1147 -665 184 -20 549 -30 750 -20 298 15 472 43 668
109 91 30 277 121 310 151 9 9 44 36 77 62 70 54 143 128 209 213 25 33 50 65
54 70 52 65 230 389 281 510 46 109 74 164 82 160 3 -3 11 7 18 21 14 32 14
54 0 34 -9 -12 -10 -12 -5 3 3 10 6 26 6 35 0 12 3 13 8 5 5 -8 13 -9 22 -3
12 8 12 10 -1 15 -15 5 -14 12 4 61 11 29 24 54 28 54 14 0 10 -27 -6 -40 -17
-14 -20 -46 -5 -55 6 -4 10 5 10 19 0 30 16 35 24 9 3 -10 4 11 2 47 -2 36 -1
57 3 47 6 -16 10 -15 35 15 25 29 27 39 23 86 -4 39 -2 52 8 52 9 0 14 17 17
49 1 27 0 47 -4 45 -12 -8 -15 21 -6 60 5 21 7 41 4 43 -2 2 -9 -19 -15 -49
-8 -36 -9 -54 -1 -56 5 -2 10 -13 10 -25 -1 -21 -1 -21 -15 3 -17 29 -13 68
16 175 11 39 21 77 23 85 20 75 51 112 115 137 39 15 80 18 281 18 245 0 282
-5 334 -46 39 -31 53 -69 117 -319 57 -222 144 -502 176 -563 8 -15 11 -38 8
-50 -5 -16 -4 -18 3 -8 8 11 11 9 17 -8 3 -11 3 -26 -1 -33 -4 -7 -4 -10 1 -6
11 10 87 -151 78 -165 -3 -7 -2 -8 2 -4 12 11 66 -99 59 -121 -4 -12 -3 -13 3
-4 7 9 13 5 24 -15 14 -27 106 -178 121 -198 90 -120 216 -260 270 -300 7 -5
38 -29 68 -51 134 -101 305 -174 524 -224 339 -78 1002 -78 1431 -1 617 111
922 418 1160 1171 19 58 64 209 100 335 37 127 80 264 96 305 29 77 104 207
142 248 51 56 142 102 198 102 38 0 121 22 136 36 12 11 11 122 -2 386 -12
255 -57 323 -240 371 -55 14 -125 33 -155 41 -58 17 -173 28 -715 72 l-330 26
-30 36 c-16 21 -56 65 -90 100 -300 317 -973 558 -1424 512 -221 -23 -368 -74
-468 -164 -75 -68 -97 -120 -90 -209 4 -40 3 -66 -1 -60 -4 7 -7 -7 -6 -31 1
-24 5 -49 9 -56 4 -6 4 -14 1 -17 -7 -8 22 -55 41 -66 7 -5 11 -12 8 -18 -4
-5 4 -9 17 -10 59 -3 -69 -27 -197 -38 -77 -6 -194 -16 -260 -22 -66 -5 -293
-16 -505 -24 -212 -8 -443 -20 -513 -26 -97 -9 -158 -9 -250 0 -67 6 -243 16
-392 21 -379 14 -1036 56 -1162 76 -39 6 -44 29 -7 38 14 4 40 22 57 41 18 19
38 35 44 35 7 0 13 5 13 11 0 6 9 23 19 38 11 15 25 54 32 86 31 151 -66 270
-283 345 -146 51 -356 70 -543 49z m380 -639 c99 -6 263 -17 365 -25 445 -36
755 -55 1035 -65 165 -5 362 -15 438 -21 102 -9 174 -9 275 0 75 6 265 15 422
21 302 11 622 27 680 35 42 6 509 41 730 55 575 36 1295 18 2026 -50 60 -5
177 -15 259 -20 287 -19 434 -41 485 -71 24 -14 -6 -11 -70 6 -75 20 -175 32
-365 45 -88 6 -290 22 -450 35 -491 41 -586 46 -1032 52 -439 6 -776 -4 -1118
-32 -502 -42 -794 -61 -1090 -70 -104 -3 -296 -13 -426 -21 -131 -8 -243 -12
-250 -10 -21 6 -361 25 -669 36 -151 6 -477 26 -725 45 -602 46 -804 55 -1235
55 -367 0 -583 -8 -915 -35 -252 -20 -653 -52 -823 -65 -78 -6 -171 -17 -205
-25 -71 -17 -104 -19 -67 -4 56 24 168 39 376 54 120 8 271 19 334 25 367 33
598 50 830 60 237 10 938 4 1185 -10z m6843 -187 c26 -16 44 -56 36 -77 -5
-12 -11 -13 -30 -4 -13 6 -24 14 -24 18 0 4 -16 23 -35 43 -19 20 -35 38 -35
41 0 9 64 -6 88 -21z m-5322 -1239 c-4 -9 -9 -15 -11 -12 -3 3 -3 13 1 22 4 9
9 15 11 12 3 -3 3 -13 -1 -22z m29 -24 c3 -5 1 -10 -4 -10 -6 0 -11 5 -11 10
0 6 2 10 4 10 3 0 8 -4 11 -10z m1405 -430 c71 -207 142 -361 224 -480 28 -41
53 -77 56 -80 3 -3 28 -30 55 -61 54 -60 156 -149 220 -192 48 -32 37 -36 -14
-5 -117 71 -256 208 -338 332 -90 137 -199 388 -228 526 -11 50 -1 35 25 -40z
m-5114 -125 c53 -128 114 -249 157 -315 57 -87 146 -198 191 -238 17 -16 40
-39 51 -52 l20 -24 -28 22 c-133 101 -260 270 -349 467 -48 105 -109 277 -107
304 0 9 11 -15 25 -54 13 -38 31 -88 40 -110z"/>
<path d="M8545 19365 c-157 -56 -314 -130 -302 -141 5 -6 108 26 137 41 14 8
41 20 60 29 19 8 54 22 77 32 23 9 40 21 37 26 -3 4 3 8 13 8 23 0 73 22 73
33 0 4 -1 6 -2 6 -2 -1 -43 -16 -93 -34z"/>
<path d="M13470 19370 c0 -5 5 -10 10 -10 6 0 10 5 10 10 0 6 -4 10 -10 10 -5
0 -10 -4 -10 -10z"/>
<path d="M13760 18980 c0 -19 -7 -20 -90 -20 l-90 0 0 -40 c0 -39 -11 -48 -52
-41 -5 0 -8 -17 -8 -39 0 -33 3 -40 20 -40 16 0 20 -7 20 -35 0 -19 4 -35 9
-35 17 0 -36 -92 -79 -139 -8 -9 -21 -29 -29 -44 -8 -15 -18 -27 -23 -27 -5 0
-18 -19 -29 -42 -11 -24 -26 -54 -33 -68 -33 -59 -62 -166 -75 -272 -8 -66 -3
-138 10 -138 10 0 39 65 39 86 0 21 43 114 52 114 4 0 8 7 8 15 0 9 7 18 15
21 8 4 15 17 15 29 0 13 4 25 8 27 10 4 102 242 102 265 0 2 -7 3 -15 3 -8 0
-15 -5 -15 -12 0 -6 -3 -9 -6 -5 -3 3 10 31 29 62 33 53 109 115 140 115 7 0
17 4 23 9 14 14 127 30 175 25 41 -4 40 -2 -1 13 -12 4 -11 7 5 13 15 6 7 9
-30 10 -27 1 -43 4 -34 7 10 2 19 12 21 21 3 9 18 24 34 32 39 20 40 23 36 70
-4 38 -6 40 -38 40 -27 0 -34 4 -34 20 0 17 -7 20 -40 20 -33 0 -40 -3 -40
-20z"/>
<path d="M13955 18750 c3 -5 16 -10 28 -9 21 0 21 1 2 9 -28 12 -37 12 -30 0z"/>
<path d="M7529 18583 c-2 -87 -1 -230 2 -318 4 -129 6 -98 7 158 1 174 0 317
-2 317 -2 0 -5 -71 -7 -157z"/>
<path d="M14080 18704 c0 -7 27 -34 34 -34 13 0 5 16 -14 28 -11 7 -20 10 -20
6z"/>
<path d="M7483 18655 c0 -8 4 -15 9 -15 4 0 8 7 8 15 0 8 -4 15 -8 15 -5 0 -9
-7 -9 -15z"/>
<path d="M14151 18633 c8 -10 16 -20 19 -23 19 -19 58 -79 65 -99 4 -14 16
-34 26 -45 11 -11 19 -34 19 -53 0 -18 9 -47 20 -65 11 -18 20 -50 20 -70 0
-36 -2 -38 -31 -38 -17 0 -28 4 -24 10 3 6 2 10 -4 10 -5 0 -18 14 -28 30 -9
17 -24 30 -32 30 -7 0 -20 8 -27 18 -9 11 -13 13 -14 4 0 -7 7 -20 15 -28 8
-9 15 -25 16 -37 1 -26 4 -42 18 -82 5 -16 15 -50 21 -75 7 -25 16 -55 21 -67
17 -44 41 -260 37 -333 -2 -41 -3 -67 0 -57 2 9 10 17 18 17 8 0 14 7 14 15 0
15 20 56 31 65 20 15 35 232 23 321 -4 34 -2 48 10 58 21 17 20 38 -1 50 -14
8 -18 28 -21 115 -2 58 -8 104 -12 101 -4 -3 -11 5 -15 18 -7 21 -8 20 -15 -8
-6 -22 -8 -25 -9 -9 -1 28 -24 71 -50 95 -11 11 -24 32 -27 47 -4 15 -24 44
-46 65 -43 39 -59 48 -37 20z"/>
<path d="M20213 18595 c0 -27 2 -38 4 -22 2 15 2 37 0 50 -2 12 -4 0 -4 -28z"/>
<path d="M14590 18271 c0 -6 4 -13 10 -16 6 -3 7 1 4 9 -7 18 -14 21 -14 7z"/>
<path d="M7534 17960 c0 -69 1 -97 3 -62 2 34 2 90 0 125 -2 34 -3 6 -3 -63z"/>
<path d="M12918 16190 c-15 -4 -35 -15 -44 -24 -14 -15 -14 -18 8 -42 51 -55
164 -93 398 -133 196 -34 686 -45 940 -21 351 32 580 102 580 176 0 51 -70 59
-320 39 -526 -42 -779 -42 -1250 0 -181 16 -271 18 -312 5z"/>
<path d="M15045 11857 c-33 -4 -85 -10 -115 -13 -30 -3 -73 -14 -95 -25 -22
-10 -56 -22 -75 -25 -19 -4 -44 -13 -55 -21 -11 -7 -29 -13 -40 -13 -11 0 -40
-10 -65 -21 -25 -12 -61 -29 -80 -38 -19 -9 -36 -25 -38 -36 -2 -11 -13 -28
-23 -38 -13 -12 -19 -32 -19 -62 0 -33 -4 -45 -15 -45 -22 0 -19 -7 20 -46 19
-19 35 -44 35 -54 0 -17 7 -20 40 -20 33 0 40 -3 40 -20 0 -16 7 -20 36 -20
19 0 43 -4 52 -9 9 -4 31 -11 47 -14 l30 -6 -30 14 -30 14 28 1 c20 0 27 5 27
20 0 17 7 20 49 20 28 0 53 5 57 12 5 8 10 7 18 -4 15 -21 49 -30 75 -20 22 8
22 9 5 23 -10 7 -15 9 -11 3 4 -7 0 -15 -9 -18 -22 -8 -24 -8 -24 5 0 7 -7 17
-16 24 -14 9 -7 12 37 13 29 0 48 -2 41 -7 -6 -4 17 -7 52 -7 35 1 61 3 57 6
-13 8 -9 40 5 40 7 0 20 7 29 16 9 9 18 14 21 11 8 -8 65 13 60 22 -9 13 9 28
59 51 40 18 46 23 31 29 -18 7 -18 8 0 26 19 18 19 18 22 -3 3 -20 7 -19 43
19 39 40 39 41 39 120 0 75 1 79 22 79 14 0 18 4 13 9 -13 12 -273 18 -350 8z
m-225 -421 c0 -3 -4 -8 -10 -11 -5 -3 -10 -1 -10 4 0 6 5 11 10 11 6 0 10 -2
10 -4z"/>
<path d="M11836 11728 c3 -7 26 -23 52 -35 105 -48 210 -92 257 -108 224 -75
325 -107 385 -120 44 -10 289 -71 360 -89 167 -43 312 -104 365 -154 71 -65
95 -109 130 -229 81 -284 75 -662 -13 -765 -8 -10 -28 -18 -43 -18 -15 0 -30
-4 -34 -10 -3 -5 -12 -7 -20 -4 -7 3 -23 -4 -34 -15 -12 -12 -25 -21 -31 -21
-5 0 -10 -4 -10 -9 0 -17 -106 -23 -201 -11 -130 16 -318 54 -559 115 -213 53
-550 158 -652 204 -24 11 -79 34 -123 52 -44 18 -84 36 -89 41 -17 14 -21 9
-22 -22 -1 -17 3 -30 7 -30 5 0 9 5 9 10 0 15 22 12 45 -7 20 -15 20 -15 -2
-10 -13 3 -23 1 -23 -4 0 -5 8 -9 18 -9 10 0 13 -3 7 -8 -15 -10 -13 -26 8
-46 9 -10 17 -22 17 -27 0 -6 5 -7 10 -4 6 4 10 -10 10 -34 0 -23 5 -41 10
-41 6 0 10 -18 10 -40 0 -33 -3 -40 -20 -40 -18 0 -20 -7 -20 -59 0 -32 -3
-86 -6 -120 l-7 -61 -53 0 -54 0 0 -70 0 -70 -40 0 c-39 0 -56 -15 -23 -22 15
-3 15 -4 0 -17 -15 -12 -17 -11 -17 3 0 12 -10 16 -40 16 l-40 0 0 -40 0 -40
-40 0 -40 0 0 -40 0 -40 -40 0 -40 0 0 -80 0 -80 -40 0 -40 0 0 -200 0 -200
40 0 40 0 0 -40 0 -40 40 0 40 0 0 -80 0 -80 80 0 80 0 0 -40 0 -40 160 0 160
0 0 -40 0 -40 320 0 320 0 0 40 0 40 200 0 200 0 0 40 0 40 80 0 80 0 0 40 0
40 80 0 c73 0 80 2 80 20 0 17 7 20 40 20 33 0 40 3 40 20 0 17 7 20 40 20 38
0 40 2 40 30 0 28 2 30 40 30 22 0 40 5 40 10 0 6 18 10 40 10 l40 0 0 65 c0
37 4 65 10 65 6 0 10 -12 10 -26 0 -22 4 -25 27 -22 32 4 40 -17 42 -99 1 -28
6 -55 12 -59 9 -5 10 22 4 102 -10 138 -11 146 -18 164 -9 23 -13 120 -4 120
4 0 7 -4 7 -10 0 -5 5 -10 10 -10 6 0 10 8 8 18 -2 9 2 16 9 15 7 -2 17 6 22
16 8 15 27 20 96 26 63 5 85 10 85 21 0 8 18 -4 42 -26 l41 -41 -2 -76 c-1
-44 2 -79 8 -82 7 -5 7 -67 1 -196 -5 -105 -9 -247 -10 -317 0 -83 -4 -128
-11 -128 -6 0 -10 -23 -9 -57 1 -92 -37 -899 -46 -978 -2 -16 -7 -61 -10 -100
-3 -38 -9 -79 -14 -90 -5 -11 -11 -36 -14 -55 -2 -19 -9 -57 -15 -84 -15 -65
-1 -159 35 -241 42 -98 172 -129 198 -47 4 12 12 22 17 22 5 0 9 7 9 15 0 8 5
15 12 15 6 0 9 3 5 6 -3 3 8 36 25 72 16 37 31 78 33 92 15 125 19 150 26 150
5 0 9 14 9 30 0 17 5 30 10 30 6 0 10 8 10 17 0 9 5 32 12 50 10 28 17 33 43
33 193 0 304 9 370 33 100 36 105 38 99 48 -3 5 2 6 11 3 10 -4 29 3 46 15 19
14 29 17 29 9 0 -7 9 2 20 20 11 17 24 32 29 32 5 0 14 15 21 33 6 17 18 44
26 59 16 30 19 148 4 148 -5 0 -19 18 -30 40 -18 36 -77 92 -85 80 -1 -3 -11
3 -21 12 -11 9 -32 20 -49 24 -16 4 -36 13 -43 21 -10 10 -28 12 -63 7 -34 -5
-49 -3 -49 5 0 6 10 11 22 11 12 0 19 2 17 5 -3 2 -29 2 -58 -2 -29 -3 -47 -9
-40 -13 6 -4 -9 -9 -35 -11 -26 -3 -52 0 -58 6 -8 7 -9 5 -5 -6 6 -19 -55 -55
-74 -43 -9 5 -10 2 -6 -10 4 -9 3 -15 -2 -11 -5 3 -23 -7 -40 -21 -20 -17 -29
-20 -25 -10 3 9 1 29 -4 44 -6 15 -12 89 -14 164 -2 76 0 130 3 120 4 -10 8
-1 10 26 3 23 1 42 -3 42 -4 0 -5 7 -2 15 4 8 10 12 15 10 5 -3 11 6 15 20 4
17 11 24 21 21 8 -3 11 -1 8 4 -3 6 -1 10 4 10 6 0 11 -8 11 -17 0 -12 3 -14
8 -7 7 11 25 14 183 29 36 3 97 16 135 29 45 15 71 20 75 13 4 -6 15 -7 25 -2
11 4 26 9 34 11 8 2 16 8 18 13 2 6 12 11 22 11 9 0 23 7 30 15 7 8 20 15 29
15 10 0 28 18 40 41 13 22 29 43 37 46 8 3 14 14 14 24 0 10 5 19 10 19 6 0
10 33 10 80 0 58 -3 80 -13 80 -12 0 -52 64 -52 84 0 6 -14 20 -32 31 -18 11
-32 26 -33 34 0 10 -13 12 -57 9 -32 -3 -52 -3 -45 -1 6 3 12 11 12 18 0 9
-11 12 -37 10 -23 -2 -31 0 -23 5 29 18 -3 24 -120 24 -80 0 -117 4 -113 11 4
5 3 7 -2 3 -4 -4 -15 -2 -24 5 -14 10 -14 10 -3 -5 11 -14 10 -17 -9 -23 -14
-5 -25 -2 -30 6 -7 11 -9 11 -9 1 0 -10 -5 -10 -20 -2 -11 6 -20 15 -20 19 0
5 9 11 20 14 15 4 20 14 20 40 0 20 -6 37 -12 40 -10 3 -10 9 0 26 6 11 12 46
12 76 0 30 5 55 10 55 6 0 10 18 10 40 0 29 4 40 15 40 10 0 15 10 15 28 0 39
17 52 67 52 l43 0 0 40 c0 30 -4 40 -16 40 -14 0 -14 3 -4 15 18 22 90 20 91
-2 1 -10 4 -4 8 12 5 26 11 30 44 33 20 2 37 7 37 13 0 5 17 9 39 9 35 0 39 3
45 30 l6 30 75 0 c73 0 75 1 75 25 0 23 4 25 40 25 29 0 40 4 40 15 0 11 11
15 40 15 42 0 56 16 18 22 -21 3 -21 4 -4 21 14 13 35 17 96 17 62 0 79 3 84
16 9 23 8 24 -14 24 -11 0 -20 4 -20 8 0 18 26 32 62 32 31 0 44 7 75 40 21
22 46 40 56 40 9 0 25 9 34 20 10 11 26 20 36 20 11 0 37 19 58 42 22 24 39
37 39 30 0 -6 5 -12 11 -12 13 0 115 100 103 101 -5 1 7 5 26 10 88 23 97 28
104 52 5 18 8 19 15 7 9 -12 11 -12 16 2 4 10 24 19 48 24 23 3 48 15 55 25 7
11 17 17 22 14 5 -3 25 6 46 20 20 14 45 25 54 25 10 0 25 11 34 25 9 14 21
23 25 20 5 -2 26 9 46 25 21 17 43 30 49 30 6 0 34 20 61 45 28 25 41 42 30
38 -11 -3 -22 -9 -25 -12 -6 -7 -45 -26 -165 -81 -59 -28 -107 -43 -140 -44
-27 -2 -70 -11 -95 -20 -27 -10 -79 -18 -129 -20 -56 -1 -86 -6 -89 -14 -2 -7
-7 -10 -12 -7 -4 3 -30 0 -56 -5 -77 -16 -92 -19 -223 -35 -68 -9 -140 -23
-159 -31 -19 -7 -54 -14 -78 -14 -23 0 -45 -4 -48 -9 -3 -5 -18 -11 -33 -14
-157 -29 -198 -38 -207 -47 -5 -5 -20 -10 -32 -10 -13 0 -25 -4 -28 -9 -3 -4
-21 -11 -40 -14 -20 -3 -59 -18 -88 -33 -35 -18 -70 -27 -103 -28 -75 -1 -104
24 -145 126 -29 73 -33 97 -38 200 -5 132 13 431 29 459 6 13 6 19 -1 19 -5 0
-10 -7 -10 -16 0 -10 -6 -14 -15 -10 -8 3 -15 2 -15 -3 0 -4 -18 -13 -40 -20
-22 -6 -40 -16 -40 -21 0 -6 -36 -10 -80 -10 -64 0 -80 -3 -80 -15 0 -12 -16
-15 -80 -15 -64 0 -80 3 -80 15 0 12 -13 15 -60 15 l-60 0 0 80 c0 73 -2 80
-20 80 -17 0 -20 7 -20 40 0 34 -3 40 -20 40 -11 0 -23 6 -26 14 -3 8 -18 20
-34 26 -16 7 -35 25 -42 41 -7 16 -25 34 -39 40 -15 6 -33 24 -39 39 -15 36
-40 48 -40 19 0 -17 -7 -14 -40 21 -22 23 -40 37 -40 31 0 -18 -28 -13 -39 7
-10 19 -106 56 -122 47 -5 -4 -26 3 -45 14 -20 12 -53 21 -75 21 -21 0 -39 4
-39 8 0 10 -140 29 -314 43 -66 5 -124 14 -131 19 -6 5 -35 7 -65 3 -35 -4
-51 -3 -47 4 6 10 -28 18 -225 55 -32 6 -55 14 -53 18 3 4 -8 10 -23 13 -80
15 -236 68 -302 102 -16 8 -33 15 -37 14 -23 -4 -43 2 -38 11 4 6 -6 10 -24
10 -20 0 -29 -4 -25 -12z m3034 -1953 c0 -10 -11 -15 -35 -15 -24 0 -35 5 -35
15 0 10 11 15 35 15 24 0 35 -5 35 -15z m-1750 -720 c0 -11 -11 -15 -40 -15
-29 0 -40 4 -40 15 0 11 11 15 40 15 29 0 40 -4 40 -15z"/>
<path d="M15360 11670 c0 -5 6 -10 14 -10 8 0 18 5 21 10 3 6 -3 10 -14 10
-12 0 -21 -4 -21 -10z"/>
<path d="M15208 11493 c6 -2 18 -2 25 0 6 3 1 5 -13 5 -14 0 -19 -2 -12 -5z"/>
<path d="M15120 11451 c0 -6 -8 -11 -17 -12 -10 0 -13 -3 -6 -5 18 -8 49 11
34 20 -6 4 -11 2 -11 -3z"/>
<path d="M14826 11383 c-11 -11 -6 -23 9 -23 8 0 15 4 15 9 0 13 -16 22 -24
14z"/>
<path d="M14745 11350 c-3 -5 -1 -10 4 -10 6 0 11 5 11 10 0 6 -2 10 -4 10 -3
0 -8 -4 -11 -10z"/>
<path d="M14560 11329 c0 -5 5 -7 10 -4 6 3 10 8 10 11 0 2 -4 4 -10 4 -5 0
-10 -5 -10 -11z"/>
<path d="M14423 9113 c9 -2 23 -2 30 0 6 3 -1 5 -18 5 -16 0 -22 -2 -12 -5z"/>
<path d="M13547 8974 c-4 -12 -5 -27 -2 -35 7 -21 43 -329 51 -444 4 -55 9
-92 11 -83 5 19 -24 415 -33 464 -3 16 -9 49 -13 74 -6 36 -9 41 -14 24z"/>
<path d="M13608 8270 c3 -58 6 -107 8 -109 7 -8 2 153 -6 184 -4 17 -5 -17 -2
-75z"/>
<path d="M14197 8069 c8 -8 16 -8 30 0 16 9 14 10 -11 11 -22 0 -27 -3 -19
-11z"/>
<path d="M14260 8069 c0 -5 5 -7 10 -4 6 3 10 8 10 11 0 2 -4 4 -10 4 -5 0
-10 -5 -10 -11z"/>
<path d="M13638 7720 c2 -22 6 -40 8 -40 2 0 4 18 4 40 0 22 -3 40 -8 40 -4 0
-6 -18 -4 -40z"/>
<path d="M13642 7630 c0 -19 2 -27 5 -17 2 9 2 25 0 35 -3 9 -5 1 -5 -18z"/>
<path d="M13650 7483 c0 -24 5 -43 10 -43 13 0 13 50 0 70 -7 11 -10 4 -10
-27z"/>
<path d="M13672 7375 c0 -16 2 -22 5 -12 2 9 2 23 0 30 -3 6 -5 -1 -5 -18z"/>
<path d="M16898 7183 c12 -2 30 -2 40 0 9 3 -1 5 -23 4 -22 0 -30 -2 -17 -4z"/>
<path d="M16688 7163 c6 -2 18 -2 25 0 6 3 1 5 -13 5 -14 0 -19 -2 -12 -5z"/>
<path d="M16318 7155 c-4 -5 -18 -9 -30 -9 -13 -1 -29 -6 -37 -10 -10 -6 -12
-5 -7 2 9 15 -35 16 -119 3 -33 -5 -107 -12 -165 -16 -178 -10 -263 -43 -309
-120 -9 -16 -42 -43 -72 -59 -30 -16 -60 -38 -67 -48 -7 -10 -19 -18 -26 -18
-7 0 -22 -18 -35 -40 -17 -30 -29 -40 -47 -40 -14 0 -24 -5 -23 -12 3 -26 -1
-39 -11 -33 -5 3 -10 -3 -10 -13 0 -11 -13 -34 -30 -52 -24 -25 -30 -41 -30
-75 0 -24 -4 -47 -10 -50 -5 -3 -10 -24 -10 -46 0 -21 -4 -39 -10 -39 -5 0
-10 -18 -10 -40 0 -22 -4 -40 -10 -40 -6 0 -10 -33 -10 -80 0 -73 -2 -80 -20
-80 -19 0 -20 -7 -20 -120 0 -73 -4 -120 -10 -120 -6 0 -10 -33 -10 -80 0 -64
-3 -80 -15 -80 -11 0 -15 -11 -15 -40 0 -29 -4 -40 -15 -40 -11 0 -15 -11 -15
-40 0 -29 4 -40 15 -40 11 0 15 -11 15 -40 0 -36 -2 -40 -25 -40 -22 0 -25 -4
-25 -40 0 -38 -2 -40 -30 -40 l-30 0 0 -80 0 -80 -40 0 -40 0 0 -80 0 -80 -40
0 -40 0 0 -80 0 -80 -40 0 -40 0 0 -40 0 -40 -40 0 -40 0 0 -40 0 -40 -40 0
-40 0 0 -40 0 -40 -40 0 -40 0 0 -40 0 -40 -40 0 -40 0 0 -40 0 -40 -40 0 -40
0 0 -40 0 -40 -200 0 -200 0 0 -40 0 -40 -360 0 -360 0 0 -40 0 -40 -200 0
-200 0 0 -40 0 -40 -80 0 -80 0 0 40 0 40 -40 0 -40 0 0 -40 0 -40 -360 0
-360 0 0 -40 0 -40 -280 0 -280 0 0 -40 0 -40 -280 0 -280 0 0 -40 0 -40 -80
0 -80 0 0 -40 0 -40 -120 0 -120 0 0 40 0 40 -40 0 -40 0 0 -40 0 -40 -120 0
-120 0 0 -40 0 -40 -80 0 -80 0 0 -40 0 -40 -120 0 -120 0 0 -40 0 -40 -80 0
-80 0 0 -40 0 -40 -120 0 -120 0 0 -40 0 -40 -80 0 -80 0 0 -40 0 -40 -80 0
-80 0 0 -40 0 -40 -80 0 -80 0 0 -40 0 -40 -40 0 -40 0 0 -40 0 -40 -80 0 -80
0 0 -40 0 -40 -40 0 -40 0 0 -280 0 -280 40 0 40 0 0 -40 0 -40 40 0 40 0 0
-40 0 -40 -40 0 -40 0 0 -80 0 -80 -40 0 -40 0 0 -40 0 -40 -40 0 -40 0 0 -40
0 -40 -80 0 -80 0 0 -40 0 -40 40 0 40 0 0 -40 0 -40 40 0 c22 0 40 -4 40 -10
0 -6 60 -10 160 -10 136 0 160 -2 160 -15 0 -11 11 -15 40 -15 47 0 55 -20 8
-21 -18 0 -51 -3 -73 -8 -23 -4 18 -6 96 -4 136 3 174 -1 163 -18 -3 -5 15 -9
40 -9 34 0 46 4 46 15 0 11 11 15 40 15 31 0 40 -4 40 -17 0 -12 8 -18 25 -19
14 -1 22 2 19 7 -3 5 6 5 20 -1 14 -5 26 -6 26 -2 0 12 68 14 75 2 8 -13 145
-13 145 0 0 6 35 10 85 10 50 0 85 -4 85 -10 0 -6 56 -10 148 -11 176 -1 338
-19 334 -37 -1 -9 19 -12 74 -12 60 0 75 3 71 14 -7 18 158 23 179 5 10 -8 72
-12 207 -12 146 0 173 -2 112 -7 -68 -6 -62 -7 35 -4 346 11 510 13 1315 14
589 0 881 -3 883 -10 5 -13 162 -13 162 0 0 6 18 10 40 10 22 0 40 -3 40 -8 0
-4 72 -7 160 -7 88 0 160 3 160 7 0 5 54 8 120 8 73 0 120 -4 120 -10 0 -6 87
-10 240 -10 153 0 240 4 240 10 0 6 18 10 40 10 22 0 40 -4 40 -10 0 -5 18
-10 41 -10 24 0 38 4 34 10 -4 6 38 10 119 10 77 0 126 -4 126 -10 0 -6 33
-10 80 -10 49 0 80 4 80 10 0 10 544 10 2050 0 124 -1 448 -1 720 -1 272 0
549 -2 615 -3 l120 -3 -115 7 -115 6 85 4 c170 7 400 6 400 -2 0 -5 56 -7 124
-6 94 2 122 6 119 16 -3 6 0 12 6 12 6 0 11 -4 11 -10 0 -5 5 -10 11 -10 5 0
7 5 4 10 -3 6 -2 10 4 10 5 0 11 -6 13 -12 3 -9 10 -8 22 5 16 15 28 17 90 10
74 -7 149 -8 226 -2 31 2 16 5 -50 10 -76 5 -66 6 50 3 139 -3 214 1 420 26
52 6 119 13 148 15 29 3 88 11 130 19 42 8 109 19 147 26 141 23 230 41 250
50 11 5 39 11 62 14 24 4 62 12 85 20 24 7 77 23 118 35 150 45 258 86 253 95
-4 5 -2 6 4 3 25 -16 412 171 480 232 7 6 15 11 18 11 14 0 178 134 245 200
78 77 115 120 93 106 -9 -5 -13 -1 -13 13 0 11 5 23 10 26 6 3 10 17 10 30 0
12 8 26 18 30 16 6 16 7 0 19 -10 7 -18 18 -18 25 0 6 -11 11 -25 11 -14 0
-25 5 -25 10 0 6 -18 10 -40 10 -29 0 -40 4 -40 15 0 11 -11 15 -40 15 -22 0
-40 3 -40 8 0 4 18 6 40 4 25 -3 40 0 40 7 0 6 -17 11 -39 11 -30 0 -40 4 -44
20 -5 18 -14 20 -81 20 -65 0 -76 2 -77 18 0 10 -3 12 -6 5 -3 -9 -29 -13 -79
-13 -59 0 -74 3 -74 15 0 11 11 15 40 15 33 0 40 3 40 20 0 18 -7 20 -80 20
-73 0 -80 2 -80 20 0 17 -7 20 -40 20 -29 0 -40 -4 -40 -15 0 -12 -16 -15 -80
-15 -64 0 -80 3 -80 15 0 11 11 15 40 15 22 0 40 5 40 10 0 6 -18 10 -40 10
-29 0 -40 4 -40 15 0 11 -11 15 -40 15 -29 0 -40 4 -40 15 0 11 -11 15 -40 15
-33 0 -40 3 -40 20 0 17 -7 20 -40 20 -33 0 -40 3 -40 20 0 18 -7 20 -80 20
-47 0 -80 4 -80 10 0 6 -33 10 -80 10 l-80 0 0 30 c0 28 -2 30 -40 30 -22 0
-40 5 -40 10 0 6 -33 10 -80 10 l-80 0 0 30 c0 28 -2 30 -40 30 -22 0 -40 5
-40 10 0 6 -18 10 -40 10 -38 0 -40 2 -40 30 l0 30 -120 0 c-73 0 -120 4 -120
10 0 6 -18 10 -40 10 -38 0 -40 2 -40 30 l0 30 -120 0 c-100 0 -120 -2 -120
-15 0 -11 -11 -15 -40 -15 -29 0 -40 4 -40 15 0 11 11 15 40 15 l40 0 0 40 0
40 -80 0 c-47 0 -80 4 -80 10 0 6 -18 10 -40 10 -38 0 -40 2 -40 30 l0 30 -80
0 c-47 0 -80 4 -80 10 0 6 -18 10 -40 10 -38 0 -40 2 -40 30 l0 30 -80 0 -80
0 0 40 0 40 -80 0 -80 0 0 80 0 80 -30 0 c-28 0 -30 2 -30 40 0 22 -4 40 -10
40 -5 0 -10 18 -10 40 l0 40 40 0 40 0 0 80 c0 79 0 80 25 80 23 0 25 4 25 40
0 39 1 40 35 40 l36 0 -3 158 -3 157 -31 3 c-30 3 -31 5 -38 64 -3 34 -6 87
-6 119 0 52 -2 59 -20 59 -16 0 -20 7 -20 35 0 22 -6 38 -15 41 -10 4 -15 20
-15 45 0 28 -4 39 -15 39 -11 0 -15 11 -15 40 0 22 -4 40 -10 40 -5 0 -10 23
-10 50 0 30 -8 68 -21 95 -16 34 -20 59 -17 110 1 36 0 65 -4 65 -5 0 -8 18
-8 39 0 22 -4 41 -9 43 -5 2 -15 54 -22 117 -10 80 -18 116 -28 119 -12 4 -13
-33 -7 -239 4 -134 11 -332 16 -439 5 -107 10 -282 10 -388 0 -193 -10 -273
-37 -300 -17 -17 -17 -1 0 17 10 11 8 13 -10 8 -14 -3 -39 6 -72 28 -28 19
-59 36 -70 40 -10 3 -25 12 -31 20 -7 9 -29 15 -51 15 -22 0 -39 5 -39 10 0 6
-15 10 -34 10 -19 0 -38 5 -41 10 -4 6 -57 10 -126 10 -73 0 -119 4 -119 10 0
6 -18 10 -40 10 -22 0 -40 5 -40 10 0 6 -18 10 -40 10 -33 0 -40 -3 -40 -20 0
-19 -7 -20 -160 -20 -153 0 -160 1 -160 20 0 17 -7 20 -40 20 -33 0 -40 -3
-40 -20 0 -17 -7 -20 -40 -20 -33 0 -40 3 -40 20 0 19 -7 20 -120 20 -113 0
-120 -1 -120 -20 0 -17 -7 -20 -40 -20 -33 0 -40 3 -40 20 0 17 -7 20 -40 20
-33 0 -40 -3 -40 -20 0 -20 -7 -20 -349 -20 l-349 0 -6 -37 c-3 -21 -8 -55
-12 -77 -5 -27 -3 -41 7 -47 11 -6 11 -11 1 -21 -15 -15 -16 -55 0 -60 7 -3 9
-12 5 -22 -8 -21 -52 -18 -52 4 0 9 -9 15 -25 15 -22 -1 -25 4 -28 37 -1 21
-7 50 -12 64 -9 24 -15 216 -25 879 -2 127 -4 301 -4 388 -1 132 -3 157 -16
157 -13 0 -15 20 -15 121 0 71 -4 118 -9 114 -5 -3 -13 0 -17 6 -3 6 -1 15 5
19 8 4 14 36 15 78 l3 71 -23 -17 c-13 -9 -24 -20 -24 -24 0 -5 -7 -8 -15 -8
-11 0 -15 11 -15 38 0 20 -7 127 -15 237 -19 254 -19 329 -1 363 18 35 66 72
114 89 45 16 264 33 427 33 69 0 114 4 107 9 -11 7 -10 10 3 15 25 9 85 7 85
-3 0 -8 700 -4 709 5 2 2 -147 4 -331 4 -184 0 -362 3 -394 6 -32 3 -62 3 -66
-1z m-578 -815 c0 -5 -2 -10 -4 -10 -3 0 -8 5 -11 10 -3 6 -1 10 4 10 6 0 11
-4 11 -10z m-513 -282 c-2 -35 -3 -9 -3 57 0 66 1 94 3 63 2 -32 2 -86 0 -120z
m520 45 c-2 -21 -4 -6 -4 32 0 39 2 55 4 38 2 -18 2 -50 0 -70z m30 -300 c-2
-21 -4 -4 -4 37 0 41 2 58 4 38 2 -21 2 -55 0 -75z m2533 -3 c0 -22 -4 -40
-10 -40 -5 0 -10 18 -10 40 0 22 5 40 10 40 6 0 10 -18 10 -40z m227 -1062
c-2 -13 -4 -5 -4 17 -1 22 1 32 4 23 2 -10 2 -28 0 -40z m3088 -2028 c-3 -5
-10 -10 -16 -10 -5 0 -9 5 -9 10 0 6 7 10 16 10 8 0 12 -4 9 -10z m-64 -57
c-8 -15 -10 -15 -11 -2 0 17 10 32 18 25 2 -3 -1 -13 -7 -23z m-51 -47 c0 -2
-7 -7 -16 -10 -8 -3 -12 -2 -9 4 6 10 25 14 25 6z m-1513 -642 c-3 -3 -12 -4
-19 -1 -8 3 -5 6 6 6 11 1 17 -2 13 -5z m-80 -10 c-3 -3 -12 -4 -19 -1 -8 3
-5 6 6 6 11 1 17 -2 13 -5z m-269 -41 c-10 -2 -26 -2 -35 0 -10 3 -2 5 17 5
19 0 27 -2 18 -5z m-179 -19 c10 -9 -105 -3 -118 5 -9 6 9 7 50 4 35 -3 66 -7
68 -9z m-158 -12 c-13 -2 -27 0 -32 5 -6 6 3 7 23 4 28 -4 29 -6 9 -9z m-554
-28 c-3 -3 -12 -4 -19 -1 -8 3 -5 6 6 6 11 1 17 -2 13 -5z m-1734 -21 c-13 -2
-33 -2 -45 0 -13 2 -3 4 22 4 25 0 35 -2 23 -4z"/>
<path d="M17208 7143 c7 -3 16 -2 19 1 4 3 -2 6 -13 5 -11 0 -14 -3 -6 -6z"/>
<path d="M18222 6540 c0 -14 2 -19 5 -12 2 6 2 18 0 25 -3 6 -5 1 -5 -13z"/>
<path d="M15820 6426 c0 -2 7 -7 16 -10 8 -3 12 -2 9 4 -6 10 -25 14 -25 6z"/>
<path d="M18261 6123 c-1 -23 3 -44 7 -47 4 -2 6 12 4 32 -5 56 -10 62 -11 15z"/>
<path d="M18460 5166 c0 -19 5 -38 10 -41 6 -4 10 10 10 34 0 23 -4 41 -10 41
-5 0 -10 -15 -10 -34z"/>
<path d="M15832 4615 c0 -16 2 -22 5 -12 2 9 2 23 0 30 -3 6 -5 -1 -5 -18z"/>
<path d="M21716 2834 c-5 -14 -4 -15 9 -4 17 14 19 20 6 20 -5 0 -12 -7 -15
-16z"/>
<path d="M21690 2799 c0 -5 -4 -7 -10 -4 -6 3 -7 -1 -4 -9 4 -11 0 -16 -10
-16 -9 0 -16 -7 -16 -15 0 -21 6 -19 35 12 27 29 31 43 15 43 -5 0 -10 -5 -10
-11z"/>
<path d="M8298 1913 c7 -3 16 -2 19 1 4 3 -2 6 -13 5 -11 0 -14 -3 -6 -6z"/>
<path d="M8595 1903 c22 -3 42 -9 45 -13 3 -5 24 -6 45 -3 l40 7 -50 7 c-27 4
-66 7 -85 6 -34 0 -33 -1 5 -4z"/>
<path d="M8828 1893 c12 -2 30 -2 40 0 9 3 -1 5 -23 4 -22 0 -30 -2 -17 -4z"/>
<path d="M8918 1893 c7 -3 16 -2 19 1 4 3 -2 6 -13 5 -11 0 -14 -3 -6 -6z"/>
<path d="M9063 1893 c9 -2 25 -2 35 0 9 3 1 5 -18 5 -19 0 -27 -2 -17 -5z"/>
<path d="M8333 1883 c9 -2 25 -2 35 0 9 3 1 5 -18 5 -19 0 -27 -2 -17 -5z"/>
<path d="M8408 1873 c6 -2 18 -2 25 0 6 3 1 5 -13 5 -14 0 -19 -2 -12 -5z"/>
<path d="M9614 1852 c6 -10 52 -9 62 1 4 4 -9 7 -30 7 -20 0 -35 -4 -32 -8z"/>
<path d="M9770 1850 c0 -6 30 -10 70 -10 40 0 70 4 70 10 0 6 -30 10 -70 10
-40 0 -70 -4 -70 -10z"/>
<path d="M9958 1833 c23 -2 59 -2 80 0 20 2 1 4 -43 4 -44 0 -61 -2 -37 -4z"/>
<path d="M18328 1833 c7 -3 16 -2 19 1 4 3 -2 6 -13 5 -11 0 -14 -3 -6 -6z"/>
<path d="M11478 1823 c23 -2 61 -2 85 0 23 2 4 4 -43 4 -47 0 -66 -2 -42 -4z"/>
<path d="M12338 1823 c12 -2 32 -2 45 0 12 2 2 4 -23 4 -25 0 -35 -2 -22 -4z"/>
<path d="M15258 1823 c122 -2 322 -2 445 0 122 1 22 2 -223 2 -245 0 -345 -1
-222 -2z"/>
<path d="M16198 1823 c70 -2 122 -8 122 -13 0 -6 49 -10 120 -10 66 0 120 4
120 8 0 9 -317 24 -424 20 -34 -1 -6 -4 62 -5z"/>
<path d="M17921 1826 c2 -2 29 -6 59 -9 34 -3 47 -2 35 3 -19 8 -103 14 -94 6z"/>
<path d="M10278 1813 c23 -2 61 -2 85 0 23 2 4 4 -43 4 -47 0 -66 -2 -42 -4z"/>
<path d="M11120 1810 c0 -6 47 -9 123 -9 98 1 112 3 72 9 -74 12 -195 12 -195
0z"/>
<path d="M17378 1813 c12 -2 32 -2 45 0 12 2 2 4 -23 4 -25 0 -35 -2 -22 -4z"/>
<path d="M12658 1803 c12 -2 32 -2 45 0 12 2 2 4 -23 4 -25 0 -35 -2 -22 -4z"/>
<path d="M13218 1803 c12 -2 32 -2 45 0 12 2 2 4 -23 4 -25 0 -35 -2 -22 -4z"/>
<path d="M13938 1803 c12 -2 32 -2 45 0 12 2 2 4 -23 4 -25 0 -35 -2 -22 -4z"/>
<path d="M15058 1803 c12 -2 32 -2 45 0 12 2 2 4 -23 4 -25 0 -35 -2 -22 -4z"/>
<path d="M16658 1803 c12 -2 32 -2 45 0 12 2 2 4 -23 4 -25 0 -35 -2 -22 -4z"/>
<path d="M16873 1803 c43 -2 110 -2 150 0 40 1 5 3 -78 3 -82 0 -115 -2 -72
-3z"/>
</g>
</svg>
